<svg width="20" height="20" viewBox="0 0 20 20" fill="none" xmlns="http://www.w3.org/2000/svg">
<path d="M10.0001 0.666656C10.6444 0.666656 11.1667 1.18899 11.1667 1.83332V8.83333H18.1667C18.8111 8.83333 19.3334 9.35566 19.3334 9.99999C19.3334 10.6443 18.8111 11.1667 18.1667 11.1667H11.1667V18.1667C11.1667 18.811 10.6444 19.3333 10.0001 19.3333C9.35575 19.3333 8.83341 18.811 8.83341 18.1667V11.1667H1.83341C1.18908 11.1667 0.666748 10.6443 0.666748 9.99999C0.666748 9.35566 1.18908 8.83333 1.83341 8.83333H8.83341V1.83332C8.83341 1.18899 9.35575 0.666656 10.0001 0.666656Z" fill="#E7E7E7"/>
</svg>
