<svg width="20" height="20" viewBox="0 0 20 20" fill="none" xmlns="http://www.w3.org/2000/svg">
<path d="M10.0001 0.666504C10.6444 0.666504 11.1667 1.18884 11.1667 1.83317V8.83318H18.1667C18.8111 8.83318 19.3334 9.35551 19.3334 9.99984C19.3334 10.6442 18.8111 11.1665 18.1667 11.1665H11.1667V18.1665C11.1667 18.8108 10.6444 19.3332 10.0001 19.3332C9.35575 19.3332 8.83341 18.8108 8.83341 18.1665V11.1665H1.83341C1.18908 11.1665 0.666748 10.6442 0.666748 9.99984C0.666748 9.35551 1.18908 8.83318 1.83341 8.83318H8.83341V1.83317C8.83341 1.18884 9.35575 0.666504 10.0001 0.666504Z" fill="#E7E7E7"/>
</svg>
