<svg width="39" height="39" viewBox="0 0 39 39" fill="none" xmlns="http://www.w3.org/2000/svg">
<path d="M19.4999 6.50006C20.3973 6.50006 21.1249 7.2276 21.1249 8.12506V17.8751H30.8749C31.7723 17.8751 32.4999 18.6026 32.4999 19.5001C32.4999 20.3975 31.7723 21.1251 30.8749 21.1251H21.1249V30.8751C21.1249 31.7725 20.3973 32.5001 19.4999 32.5001C18.6024 32.5001 17.8749 31.7725 17.8749 30.8751V21.1251H8.12488C7.22742 21.1251 6.49988 20.3975 6.49988 19.5001C6.49988 18.6026 7.22742 17.8751 8.12488 17.8751H17.8749V8.12506C17.8749 7.2276 18.6024 6.50006 19.4999 6.50006Z" fill="#E7E7E7"/>
</svg>
